<svg width="16" height="16" viewBox="0 0 16 16" fill="none" xmlns="http://www.w3.org/2000/svg">
<g clip-path="url(#clip0_1892_9343)">
<path d="M8.0013 9.99996C9.10587 9.99996 10.0013 9.10453 10.0013 7.99996C10.0013 6.89539 9.10587 5.99996 8.0013 5.99996C6.89673 5.99996 6.0013 6.89539 6.0013 7.99996C6.0013 9.10453 6.89673 9.99996 8.0013 9.99996Z" stroke="#414651" stroke-width="1.5" stroke-linecap="round" stroke-linejoin="round"/>
<path d="M12.9346 9.99996C12.8459 10.201 12.8194 10.4241 12.8586 10.6404C12.8978 10.8566 13.0009 11.0562 13.1546 11.2133L13.1946 11.2533C13.3186 11.3771 13.4169 11.5242 13.484 11.686C13.5511 11.8479 13.5857 12.0214 13.5857 12.1966C13.5857 12.3718 13.5511 12.5453 13.484 12.7072C13.4169 12.8691 13.3186 13.0161 13.1946 13.14C13.0708 13.2639 12.9238 13.3623 12.7619 13.4294C12.6 13.4965 12.4265 13.531 12.2513 13.531C12.0761 13.531 11.9026 13.4965 11.7407 13.4294C11.5789 13.3623 11.4318 13.2639 11.308 13.14L11.268 13.1C11.1108 12.9463 10.9113 12.8432 10.695 12.804C10.4788 12.7647 10.2557 12.7912 10.0546 12.88C9.85746 12.9645 9.68929 13.1048 9.57084 13.2836C9.45239 13.4625 9.38882 13.6721 9.38797 13.8866V14C9.38797 14.3536 9.24749 14.6927 8.99744 14.9428C8.7474 15.1928 8.40826 15.3333 8.05464 15.3333C7.70101 15.3333 7.36188 15.1928 7.11183 14.9428C6.86178 14.6927 6.7213 14.3536 6.7213 14V13.94C6.71614 13.7193 6.64471 13.5053 6.51631 13.3258C6.3879 13.1462 6.20846 13.0095 6.0013 12.9333C5.80022 12.8445 5.57717 12.8181 5.36091 12.8573C5.14465 12.8965 4.94509 12.9996 4.78797 13.1533L4.74797 13.1933C4.62414 13.3173 4.47709 13.4156 4.31522 13.4827C4.15336 13.5498 3.97986 13.5843 3.80464 13.5843C3.62941 13.5843 3.45591 13.5498 3.29405 13.4827C3.13218 13.4156 2.98513 13.3173 2.8613 13.1933C2.73733 13.0695 2.63899 12.9224 2.57189 12.7605C2.50479 12.5987 2.47025 12.4252 2.47025 12.25C2.47025 12.0747 2.50479 11.9012 2.57189 11.7394C2.63899 11.5775 2.73733 11.4305 2.8613 11.3066L2.9013 11.2666C3.05499 11.1095 3.15809 10.9099 3.19731 10.6937C3.23652 10.4774 3.21005 10.2544 3.1213 10.0533C3.03679 9.85611 2.89647 9.68795 2.71761 9.5695C2.53875 9.45105 2.32916 9.38748 2.11464 9.38663H2.0013C1.64768 9.38663 1.30854 9.24615 1.05849 8.9961C0.808445 8.74605 0.667969 8.40691 0.667969 8.05329C0.667969 7.69967 0.808445 7.36053 1.05849 7.11048C1.30854 6.86044 1.64768 6.71996 2.0013 6.71996H2.0613C2.28197 6.7148 2.49597 6.64337 2.6755 6.51497C2.85503 6.38656 2.99178 6.20712 3.06797 5.99996C3.15671 5.79888 3.18318 5.57583 3.14397 5.35957C3.10476 5.1433 3.00166 4.94375 2.84797 4.78663L2.80797 4.74663C2.684 4.6228 2.58565 4.47574 2.51856 4.31388C2.45146 4.15202 2.41692 3.97851 2.41692 3.80329C2.41692 3.62807 2.45146 3.45457 2.51856 3.29271C2.58565 3.13084 2.684 2.98379 2.80797 2.85996C2.9318 2.73599 3.07885 2.63765 3.24072 2.57055C3.40258 2.50345 3.57608 2.46891 3.7513 2.46891C3.92652 2.46891 4.10003 2.50345 4.26189 2.57055C4.42375 2.63765 4.5708 2.73599 4.69464 2.85996L4.73464 2.89996C4.89175 3.05365 5.09131 3.15675 5.30758 3.19596C5.52384 3.23517 5.74689 3.2087 5.94797 3.11996H6.0013C6.19848 3.03545 6.36665 2.89513 6.4851 2.71627C6.60355 2.53741 6.66711 2.32782 6.66797 2.11329V1.99996C6.66797 1.64634 6.80844 1.3072 7.05849 1.05715C7.30854 0.807102 7.64768 0.666626 8.0013 0.666626C8.35492 0.666626 8.69406 0.807102 8.94411 1.05715C9.19416 1.3072 9.33464 1.64634 9.33464 1.99996V2.05996C9.33549 2.27448 9.39906 2.48408 9.51751 2.66294C9.63596 2.8418 9.80412 2.98212 10.0013 3.06663C10.2024 3.15537 10.4254 3.18184 10.6417 3.14263C10.858 3.10342 11.0575 3.00032 11.2146 2.84663L11.2546 2.80663C11.3785 2.68266 11.5255 2.58431 11.6874 2.51721C11.8492 2.45011 12.0227 2.41558 12.198 2.41558C12.3732 2.41558 12.5467 2.45011 12.7086 2.51721C12.8704 2.58431 13.0175 2.68266 13.1413 2.80663C13.2653 2.93046 13.3636 3.07751 13.4307 3.23937C13.4978 3.40124 13.5324 3.57474 13.5324 3.74996C13.5324 3.92518 13.4978 4.09868 13.4307 4.26055C13.3636 4.42241 13.2653 4.56946 13.1413 4.69329L13.1013 4.73329C12.9476 4.89041 12.8445 5.08997 12.8053 5.30623C12.7661 5.5225 12.7926 5.74555 12.8813 5.94663V5.99996C12.9658 6.19714 13.1061 6.3653 13.285 6.48375C13.4639 6.60221 13.6734 6.66577 13.888 6.66663H14.0013C14.3549 6.66663 14.6941 6.8071 14.9441 7.05715C15.1942 7.3072 15.3346 7.64634 15.3346 7.99996C15.3346 8.35358 15.1942 8.69272 14.9441 8.94277C14.6941 9.19282 14.3549 9.33329 14.0013 9.33329H13.9413C13.7268 9.33415 13.5172 9.39771 13.3383 9.51616C13.1595 9.63461 13.0191 9.80278 12.9346 9.99996Z" stroke="#414651" stroke-width="1.5" stroke-linecap="round" stroke-linejoin="round"/>
</g>
<defs>
<clipPath id="clip0_1892_9343">
<rect width="16" height="16" fill="white"/>
</clipPath>
</defs>
</svg>
