<svg width="16" height="16" viewBox="0 0 16 16" fill="none" xmlns="http://www.w3.org/2000/svg">
<g clip-path="url(#clip0_1892_9379)">
<path d="M9.66536 6.66671C9.11203 6.66671 8.66536 6.22004 8.66536 5.66671V2.33337C8.66536 1.78004 9.11203 1.33337 9.66536 1.33337C10.2187 1.33337 10.6654 1.78004 10.6654 2.33337V5.66671C10.6654 6.22004 10.2187 6.66671 9.66536 6.66671Z" stroke="#414651" stroke-width="1.5" stroke-linecap="round" stroke-linejoin="round"/>
<path d="M13.6654 6.66671H12.6654V5.66671C12.6654 5.11337 13.112 4.66671 13.6654 4.66671C14.2187 4.66671 14.6654 5.11337 14.6654 5.66671C14.6654 6.22004 14.2187 6.66671 13.6654 6.66671Z" stroke="#414651" stroke-width="1.5" stroke-linecap="round" stroke-linejoin="round"/>
<path d="M6.33203 9.33337C6.88536 9.33337 7.33203 9.78004 7.33203 10.3334V13.6667C7.33203 14.22 6.88536 14.6667 6.33203 14.6667C5.7787 14.6667 5.33203 14.22 5.33203 13.6667V10.3334C5.33203 9.78004 5.7787 9.33337 6.33203 9.33337Z" stroke="#414651" stroke-width="1.5" stroke-linecap="round" stroke-linejoin="round"/>
<path d="M2.33203 9.33337H3.33203V10.3334C3.33203 10.8867 2.88536 11.3334 2.33203 11.3334C1.7787 11.3334 1.33203 10.8867 1.33203 10.3334C1.33203 9.78004 1.7787 9.33337 2.33203 9.33337Z" stroke="#414651" stroke-width="1.5" stroke-linecap="round" stroke-linejoin="round"/>
<path d="M9.33203 9.66671C9.33203 9.11337 9.7787 8.66671 10.332 8.66671H13.6654C14.2187 8.66671 14.6654 9.11337 14.6654 9.66671C14.6654 10.22 14.2187 10.6667 13.6654 10.6667H10.332C9.7787 10.6667 9.33203 10.22 9.33203 9.66671Z" stroke="#414651" stroke-width="1.5" stroke-linecap="round" stroke-linejoin="round"/>
<path d="M10.332 12.6667H9.33203V13.6667C9.33203 14.22 9.7787 14.6667 10.332 14.6667C10.8854 14.6667 11.332 14.22 11.332 13.6667C11.332 13.1134 10.8854 12.6667 10.332 12.6667Z" stroke="#414651" stroke-width="1.5" stroke-linecap="round" stroke-linejoin="round"/>
<path d="M6.66536 6.33337C6.66536 5.78004 6.2187 5.33337 5.66536 5.33337H2.33203C1.7787 5.33337 1.33203 5.78004 1.33203 6.33337C1.33203 6.88671 1.7787 7.33337 2.33203 7.33337H5.66536C6.2187 7.33337 6.66536 6.88671 6.66536 6.33337Z" stroke="#414651" stroke-width="1.5" stroke-linecap="round" stroke-linejoin="round"/>
<path d="M5.66536 3.33337H6.66536V2.33337C6.66536 1.78004 6.2187 1.33337 5.66536 1.33337C5.11203 1.33337 4.66536 1.78004 4.66536 2.33337C4.66536 2.88671 5.11203 3.33337 5.66536 3.33337Z" stroke="#414651" stroke-width="1.5" stroke-linecap="round" stroke-linejoin="round"/>
</g>
<defs>
<clipPath id="clip0_1892_9379">
<rect width="16" height="16" fill="white"/>
</clipPath>
</defs>
</svg>
