<svg width="46" height="32" viewBox="0 0 46 32" fill="none" xmlns="http://www.w3.org/2000/svg">
<rect x="0.5" y="0.5" width="45" height="31" rx="5.5" fill="white"/>
<rect x="0.5" y="0.5" width="45" height="31" rx="5.5" stroke="#F5F5F5"/>
<path fill-rule="evenodd" clip-rule="evenodd" d="M12.6977 11.1239C12.311 11.5931 11.6921 11.9632 11.0733 11.9103C10.996 11.2759 11.2989 10.6018 11.6535 10.1855C12.0402 9.70308 12.7171 9.35944 13.265 9.33301C13.3294 9.99385 13.078 10.6415 12.6977 11.1239ZM13.2585 12.0358C12.7133 12.0037 12.2159 12.2039 11.8141 12.3657C11.5555 12.4698 11.3365 12.5579 11.17 12.5579C10.983 12.5579 10.755 12.465 10.499 12.3608C10.1636 12.2242 9.78012 12.068 9.37797 12.0755C8.45619 12.0887 7.59886 12.624 7.1283 13.4765C6.1614 15.1814 6.87691 17.7058 7.81158 19.0936C8.26925 19.7809 8.81716 20.5342 9.53912 20.5078C9.85674 20.4955 10.0852 20.3961 10.3217 20.2933C10.5939 20.1748 10.8767 20.0518 11.3182 20.0518C11.7445 20.0518 12.0149 20.1716 12.2745 20.2867C12.5213 20.396 12.7583 20.501 13.1102 20.4946C13.858 20.4814 14.3285 19.8073 14.7862 19.12C15.2801 18.3824 15.4971 17.6625 15.5301 17.5533L15.5339 17.5406C15.5331 17.5398 15.5271 17.537 15.5163 17.5319L15.5163 17.5319C15.3512 17.4544 14.0892 16.8622 14.0771 15.274C14.065 13.9409 15.0781 13.2655 15.2375 13.1592L15.2376 13.1591C15.2473 13.1527 15.2538 13.1483 15.2568 13.1461C14.6122 12.168 13.6066 12.0623 13.2585 12.0358ZM18.4347 20.4219V10.1194H22.2056C24.1523 10.1194 25.5125 11.4939 25.5125 13.5029C25.5125 15.5119 24.1266 16.8996 22.1541 16.8996H19.9946V20.4219H18.4347ZM19.9945 11.4675H21.793C23.1466 11.4675 23.9202 12.2077 23.9202 13.5095C23.9202 14.8114 23.1466 15.5581 21.7865 15.5581H19.9945V11.4675ZM30.6629 19.1861C30.2504 19.9924 29.3415 20.5012 28.3617 20.5012C26.9113 20.5012 25.8993 19.6157 25.8993 18.2808C25.8993 16.9591 26.8791 16.1991 28.6904 16.0868L30.6371 15.9678V15.3995C30.6371 14.5603 30.1021 14.1043 29.1481 14.1043C28.3617 14.1043 27.788 14.5206 27.6719 15.155H26.2667C26.3118 13.8201 27.5366 12.8487 29.1932 12.8487C30.9788 12.8487 32.1391 13.8069 32.1391 15.2938V20.4219H30.6951V19.1861H30.6629ZM28.7806 19.2787C27.949 19.2787 27.4204 18.8689 27.4204 18.2411C27.4204 17.5935 27.9297 17.2168 28.903 17.1574L30.637 17.045V17.6266C30.637 18.5914 29.8377 19.2787 28.7806 19.2787ZM36.9284 20.825C36.3031 22.6291 35.5876 23.2239 34.0664 23.2239C33.9503 23.2239 33.5636 23.2107 33.4733 23.1842V21.9485C33.57 21.9617 33.8085 21.9749 33.931 21.9749C34.6207 21.9749 35.0075 21.6775 35.246 20.9043L35.3878 20.4483L32.7449 12.9478H34.3758L36.2129 19.0341H36.2451L38.0822 12.9478H39.668L36.9284 20.825Z" fill="black"/>
</svg>
