<svg width="46" height="32" viewBox="0 0 46 32" fill="none" xmlns="http://www.w3.org/2000/svg">
<rect x="0.5" y="0.5" width="45" height="31" rx="5.5" fill="white"/>
<rect x="0.5" y="0.5" width="45" height="31" rx="5.5" stroke="#F5F5F5"/>
<path d="M28.7695 6.70703C33.7627 6.70703 37.8105 10.7069 37.8105 15.6406C37.8104 20.5742 33.7626 24.5732 28.7695 24.5732C26.5311 24.5732 24.4842 23.768 22.9053 22.4365C21.3264 23.768 19.2795 24.5732 17.041 24.5732C12.0479 24.5732 8.00014 20.5742 8 15.6406C8 10.7069 12.0479 6.70703 17.041 6.70703C19.2794 6.70705 21.3264 7.51239 22.9053 8.84375C24.4841 7.51239 26.5312 6.70707 28.7695 6.70703Z" fill="#ED0006"/>
<path d="M28.7705 6.70703C33.7637 6.70703 37.8115 10.7069 37.8115 15.6406C37.8114 20.5742 33.7636 24.5732 28.7705 24.5732C26.5321 24.5732 24.4852 23.768 22.9062 22.4365C24.8492 20.798 26.0829 18.3624 26.083 15.6406C26.083 12.9186 24.8494 10.4823 22.9062 8.84375C24.4851 7.51239 26.5322 6.70706 28.7705 6.70703Z" fill="#F9A000"/>
<path d="M22.9062 8.84375C24.8495 10.4822 26.0829 12.9177 26.083 15.6396C26.083 18.3616 24.8493 20.797 22.9062 22.4355C20.9637 20.797 19.7305 18.3612 19.7305 15.6396C19.7306 12.9181 20.9635 10.4822 22.9062 8.84375Z" fill="#FF5E00"/>
</svg>
