<svg width="115" height="115" viewBox="0 0 115 115" fill="none" xmlns="http://www.w3.org/2000/svg">
<path d="M31.1352 0H27.6758V3.45948H31.1352V0Z" fill="black"/>
<path d="M41.5141 0H38.0547V3.45948H41.5141V0Z" fill="black"/>
<path d="M44.9712 0H41.5117V3.45948H44.9712V0Z" fill="black"/>
<path d="M48.4321 0H44.9727V3.45948H48.4321V0Z" fill="black"/>
<path d="M55.3501 0H51.8906V3.45948H55.3501V0Z" fill="black"/>
<path d="M65.729 0H62.2695V3.45948H65.729V0Z" fill="black"/>
<path d="M83.0259 0H79.5664V3.45948H83.0259V0Z" fill="black"/>
<path d="M34.5962 3.45996H31.1367V6.9194H34.5962V3.45996Z" fill="black"/>
<path d="M38.0531 3.45996H34.5938V6.9194H38.0531V3.45996Z" fill="black"/>
<path d="M41.5141 3.45996H38.0547V6.9194H41.5141V3.45996Z" fill="black"/>
<path d="M44.9712 3.45996H41.5117V6.9194H44.9712V3.45996Z" fill="black"/>
<path d="M48.4321 3.45996H44.9727V6.9194H48.4321V3.45996Z" fill="black"/>
<path d="M51.8931 3.45996H48.4336V6.9194H51.8931V3.45996Z" fill="black"/>
<path d="M65.729 3.45996H62.2695V6.9194H65.729V3.45996Z" fill="black"/>
<path d="M69.1899 3.45996H65.7305V6.9194H69.1899V3.45996Z" fill="black"/>
<path d="M38.0531 6.91895H34.5938V10.3784H38.0531V6.91895Z" fill="black"/>
<path d="M44.9712 6.91895H41.5117V10.3784H44.9712V6.91895Z" fill="black"/>
<path d="M51.8931 6.91895H48.4336V10.3784H51.8931V6.91895Z" fill="black"/>
<path d="M55.3501 6.91895H51.8906V10.3784H55.3501V6.91895Z" fill="black"/>
<path d="M58.811 6.91895H55.3516V10.3784H58.811V6.91895Z" fill="black"/>
<path d="M62.272 6.91895H58.8125V10.3784H62.272V6.91895Z" fill="black"/>
<path d="M65.729 6.91895H62.2695V10.3784H65.729V6.91895Z" fill="black"/>
<path d="M69.1899 6.91895H65.7305V10.3784H69.1899V6.91895Z" fill="black"/>
<path d="M76.108 6.91895H72.6484V10.3784H76.108V6.91895Z" fill="black"/>
<path d="M83.0259 6.91895H79.5664V10.3784H83.0259V6.91895Z" fill="black"/>
<path d="M31.1352 10.3789H27.6758V13.8384H31.1352V10.3789Z" fill="black"/>
<path d="M34.5962 10.3789H31.1367V13.8384H34.5962V10.3789Z" fill="black"/>
<path d="M41.5141 10.3789H38.0547V13.8384H41.5141V10.3789Z" fill="black"/>
<path d="M44.9712 10.3789H41.5117V13.8384H44.9712V10.3789Z" fill="black"/>
<path d="M58.811 10.3789H55.3516V13.8384H58.811V10.3789Z" fill="black"/>
<path d="M62.272 10.3789H58.8125V13.8384H62.272V10.3789Z" fill="black"/>
<path d="M76.108 10.3789H72.6484V13.8384H76.108V10.3789Z" fill="black"/>
<path d="M79.5687 10.3789H76.1094V13.8384H79.5687V10.3789Z" fill="black"/>
<path d="M31.1352 13.8379H27.6758V17.2973H31.1352V13.8379Z" fill="black"/>
<path d="M34.5962 13.8379H31.1367V17.2973H34.5962V13.8379Z" fill="black"/>
<path d="M58.811 13.8379H55.3516V17.2973H58.811V13.8379Z" fill="black"/>
<path d="M62.272 13.8379H58.8125V17.2973H62.272V13.8379Z" fill="black"/>
<path d="M69.1899 13.8379H65.7305V17.2973H69.1899V13.8379Z" fill="black"/>
<path d="M76.108 13.8379H72.6484V17.2973H76.108V13.8379Z" fill="black"/>
<path d="M79.5687 13.8379H76.1094V17.2973H79.5687V13.8379Z" fill="black"/>
<path d="M31.1352 17.2969H27.6758V20.7563H31.1352V17.2969Z" fill="black"/>
<path d="M34.5962 17.2969H31.1367V20.7563H34.5962V17.2969Z" fill="black"/>
<path d="M38.0531 17.2969H34.5938V20.7563H38.0531V17.2969Z" fill="black"/>
<path d="M44.9712 17.2969H41.5117V20.7563H44.9712V17.2969Z" fill="black"/>
<path d="M55.3501 17.2969H51.8906V20.7563H55.3501V17.2969Z" fill="black"/>
<path d="M62.272 17.2969H58.8125V20.7563H62.272V17.2969Z" fill="black"/>
<path d="M72.647 17.2969H69.1875V20.7563H72.647V17.2969Z" fill="black"/>
<path d="M76.108 17.2969H72.6484V20.7563H76.108V17.2969Z" fill="black"/>
<path d="M79.5687 17.2969H76.1094V20.7563H79.5687V17.2969Z" fill="black"/>
<path d="M83.0259 17.2969H79.5664V20.7563H83.0259V17.2969Z" fill="black"/>
<path d="M86.4868 17.2969H83.0273V20.7563H86.4868V17.2969Z" fill="black"/>
<path d="M31.1352 20.7568H27.6758V24.2163H31.1352V20.7568Z" fill="black"/>
<path d="M38.0531 20.7568H34.5938V24.2163H38.0531V20.7568Z" fill="black"/>
<path d="M44.9712 20.7568H41.5117V24.2163H44.9712V20.7568Z" fill="black"/>
<path d="M51.8931 20.7568H48.4336V24.2163H51.8931V20.7568Z" fill="black"/>
<path d="M58.811 20.7568H55.3516V24.2163H58.811V20.7568Z" fill="black"/>
<path d="M65.729 20.7568H62.2695V24.2163H65.729V20.7568Z" fill="black"/>
<path d="M72.647 20.7568H69.1875V24.2163H72.647V20.7568Z" fill="black"/>
<path d="M79.5687 20.7568H76.1094V24.2163H79.5687V20.7568Z" fill="black"/>
<path d="M86.4868 20.7568H83.0273V24.2163H86.4868V20.7568Z" fill="black"/>
<path d="M31.1352 24.2168H27.6758V27.6763H31.1352V24.2168Z" fill="black"/>
<path d="M41.5141 24.2168H38.0547V27.6763H41.5141V24.2168Z" fill="black"/>
<path d="M51.8931 24.2168H48.4336V27.6763H51.8931V24.2168Z" fill="black"/>
<path d="M62.272 24.2168H58.8125V27.6763H62.272V24.2168Z" fill="black"/>
<path d="M65.729 24.2168H62.2695V27.6763H65.729V24.2168Z" fill="black"/>
<path d="M69.1899 24.2168H65.7305V27.6763H69.1899V24.2168Z" fill="black"/>
<path d="M72.647 24.2168H69.1875V27.6763H72.647V24.2168Z" fill="black"/>
<path d="M76.108 24.2168H72.6484V27.6763H76.108V24.2168Z" fill="black"/>
<path d="M86.4868 24.2168H83.0273V27.6763H86.4868V24.2168Z" fill="black"/>
<path d="M3.45948 27.6758H0V31.1352H3.45948V27.6758Z" fill="black"/>
<path d="M17.2954 27.6758H13.8359V31.1352H17.2954V27.6758Z" fill="black"/>
<path d="M24.2173 27.6758H20.7578V31.1352H24.2173V27.6758Z" fill="black"/>
<path d="M27.6743 27.6758H24.2148V31.1352H27.6743V27.6758Z" fill="black"/>
<path d="M31.1352 27.6758H27.6758V31.1352H31.1352V27.6758Z" fill="black"/>
<path d="M38.0531 27.6758H34.5938V31.1352H38.0531V27.6758Z" fill="black"/>
<path d="M44.9712 27.6758H41.5117V31.1352H44.9712V27.6758Z" fill="black"/>
<path d="M55.3501 27.6758H51.8906V31.1352H55.3501V27.6758Z" fill="black"/>
<path d="M62.272 27.6758H58.8125V31.1352H62.272V27.6758Z" fill="black"/>
<path d="M72.647 27.6758H69.1875V31.1352H72.647V27.6758Z" fill="black"/>
<path d="M76.108 27.6758H72.6484V31.1352H76.108V27.6758Z" fill="black"/>
<path d="M79.5687 27.6758H76.1094V31.1352H79.5687V27.6758Z" fill="black"/>
<path d="M83.0259 27.6758H79.5664V31.1352H83.0259V27.6758Z" fill="black"/>
<path d="M89.9477 27.6758H86.4883V31.1352H89.9477V27.6758Z" fill="black"/>
<path d="M93.4048 27.6758H89.9453V31.1352H93.4048V27.6758Z" fill="black"/>
<path d="M96.8657 27.6758H93.4062V31.1352H96.8657V27.6758Z" fill="black"/>
<path d="M100.323 27.6758H96.8633V31.1352H100.323V27.6758Z" fill="black"/>
<path d="M103.784 27.6758H100.324V31.1352H103.784V27.6758Z" fill="black"/>
<path d="M114.163 27.6758H110.703V31.1352H114.163V27.6758Z" fill="black"/>
<path d="M6.92038 31.1357H3.46094V34.5953H6.92038V31.1357Z" fill="black"/>
<path d="M20.7563 31.1357H17.2969V34.5953H20.7563V31.1357Z" fill="black"/>
<path d="M27.6743 31.1357H24.2148V34.5953H27.6743V31.1357Z" fill="black"/>
<path d="M38.0531 31.1357H34.5938V34.5953H38.0531V31.1357Z" fill="black"/>
<path d="M41.5141 31.1357H38.0547V34.5953H41.5141V31.1357Z" fill="black"/>
<path d="M55.3501 31.1357H51.8906V34.5953H55.3501V31.1357Z" fill="black"/>
<path d="M58.811 31.1357H55.3516V34.5953H58.811V31.1357Z" fill="black"/>
<path d="M62.272 31.1357H58.8125V34.5953H62.272V31.1357Z" fill="black"/>
<path d="M65.729 31.1357H62.2695V34.5953H65.729V31.1357Z" fill="black"/>
<path d="M76.108 31.1357H72.6484V34.5953H76.108V31.1357Z" fill="black"/>
<path d="M79.5687 31.1357H76.1094V34.5953H79.5687V31.1357Z" fill="black"/>
<path d="M83.0259 31.1357H79.5664V34.5953H83.0259V31.1357Z" fill="black"/>
<path d="M89.9477 31.1357H86.4883V34.5953H89.9477V31.1357Z" fill="black"/>
<path d="M103.784 31.1357H100.324V34.5953H103.784V31.1357Z" fill="black"/>
<path d="M107.245 31.1357H103.785V34.5953H107.245V31.1357Z" fill="black"/>
<path d="M114.163 31.1357H110.703V34.5953H114.163V31.1357Z" fill="black"/>
<path d="M3.45948 34.5938H0V38.0531H3.45948V34.5938Z" fill="black"/>
<path d="M10.3774 34.5938H6.91797V38.0531H10.3774V34.5938Z" fill="black"/>
<path d="M17.2954 34.5938H13.8359V38.0531H17.2954V34.5938Z" fill="black"/>
<path d="M20.7563 34.5938H17.2969V38.0531H20.7563V34.5938Z" fill="black"/>
<path d="M24.2173 34.5938H20.7578V38.0531H24.2173V34.5938Z" fill="black"/>
<path d="M27.6743 34.5938H24.2148V38.0531H27.6743V34.5938Z" fill="black"/>
<path d="M31.1352 34.5938H27.6758V38.0531H31.1352V34.5938Z" fill="black"/>
<path d="M48.4321 34.5938H44.9727V38.0531H48.4321V34.5938Z" fill="black"/>
<path d="M51.8931 34.5938H48.4336V38.0531H51.8931V34.5938Z" fill="black"/>
<path d="M55.3501 34.5938H51.8906V38.0531H55.3501V34.5938Z" fill="black"/>
<path d="M65.729 34.5938H62.2695V38.0531H65.729V34.5938Z" fill="black"/>
<path d="M83.0259 34.5938H79.5664V38.0531H83.0259V34.5938Z" fill="black"/>
<path d="M89.9477 34.5938H86.4883V38.0531H89.9477V34.5938Z" fill="black"/>
<path d="M103.784 34.5938H100.324V38.0531H103.784V34.5938Z" fill="black"/>
<path d="M110.702 34.5938H107.242V38.0531H110.702V34.5938Z" fill="black"/>
<path d="M10.3774 38.0537H6.91797V41.5132H10.3774V38.0537Z" fill="black"/>
<path d="M17.2954 38.0537H13.8359V41.5132H17.2954V38.0537Z" fill="black"/>
<path d="M27.6743 38.0537H24.2148V41.5132H27.6743V38.0537Z" fill="black"/>
<path d="M38.0531 38.0537H34.5938V41.5132H38.0531V38.0537Z" fill="black"/>
<path d="M44.9712 38.0537H41.5117V41.5132H44.9712V38.0537Z" fill="black"/>
<path d="M48.4321 38.0537H44.9727V41.5132H48.4321V38.0537Z" fill="black"/>
<path d="M58.811 38.0537H55.3516V41.5132H58.811V38.0537Z" fill="black"/>
<path d="M69.1899 38.0537H65.7305V41.5132H69.1899V38.0537Z" fill="black"/>
<path d="M72.647 38.0537H69.1875V41.5132H72.647V38.0537Z" fill="black"/>
<path d="M79.5687 38.0537H76.1094V41.5132H79.5687V38.0537Z" fill="black"/>
<path d="M86.4868 38.0537H83.0273V41.5132H86.4868V38.0537Z" fill="black"/>
<path d="M89.9477 38.0537H86.4883V41.5132H89.9477V38.0537Z" fill="black"/>
<path d="M93.4048 38.0537H89.9453V41.5132H93.4048V38.0537Z" fill="black"/>
<path d="M3.45948 41.5137H0V44.9731H3.45948V41.5137Z" fill="black"/>
<path d="M10.3774 41.5137H6.91797V44.9731H10.3774V41.5137Z" fill="black"/>
<path d="M13.8384 41.5137H10.3789V44.9731H13.8384V41.5137Z" fill="black"/>
<path d="M24.2173 41.5137H20.7578V44.9731H24.2173V41.5137Z" fill="black"/>
<path d="M31.1352 41.5137H27.6758V44.9731H31.1352V41.5137Z" fill="black"/>
<path d="M38.0531 41.5137H34.5938V44.9731H38.0531V41.5137Z" fill="black"/>
<path d="M44.9712 41.5137H41.5117V44.9731H44.9712V41.5137Z" fill="black"/>
<path d="M48.4321 41.5137H44.9727V44.9731H48.4321V41.5137Z" fill="black"/>
<path d="M58.811 41.5137H55.3516V44.9731H58.811V41.5137Z" fill="black"/>
<path d="M79.5687 41.5137H76.1094V44.9731H79.5687V41.5137Z" fill="black"/>
<path d="M83.0259 41.5137H79.5664V44.9731H83.0259V41.5137Z" fill="black"/>
<path d="M86.4868 41.5137H83.0273V44.9731H86.4868V41.5137Z" fill="black"/>
<path d="M93.4048 41.5137H89.9453V44.9731H93.4048V41.5137Z" fill="black"/>
<path d="M96.8657 41.5137H93.4062V44.9731H96.8657V41.5137Z" fill="black"/>
<path d="M103.784 41.5137H100.324V44.9731H103.784V41.5137Z" fill="black"/>
<path d="M114.163 41.5137H110.703V44.9731H114.163V41.5137Z" fill="black"/>
<path d="M3.45948 44.9727H0V48.4321H3.45948V44.9727Z" fill="black"/>
<path d="M10.3774 44.9727H6.91797V48.4321H10.3774V44.9727Z" fill="black"/>
<path d="M13.8384 44.9727H10.3789V48.4321H13.8384V44.9727Z" fill="black"/>
<path d="M17.2954 44.9727H13.8359V48.4321H17.2954V44.9727Z" fill="black"/>
<path d="M20.7563 44.9727H17.2969V48.4321H20.7563V44.9727Z" fill="black"/>
<path d="M27.6743 44.9727H24.2148V48.4321H27.6743V44.9727Z" fill="black"/>
<path d="M38.0531 44.9727H34.5938V48.4321H38.0531V44.9727Z" fill="black"/>
<path d="M41.5141 44.9727H38.0547V48.4321H41.5141V44.9727Z" fill="black"/>
<path d="M51.8931 44.9727H48.4336V48.4321H51.8931V44.9727Z" fill="black"/>
<path d="M62.272 44.9727H58.8125V48.4321H62.272V44.9727Z" fill="black"/>
<path d="M65.729 44.9727H62.2695V48.4321H65.729V44.9727Z" fill="black"/>
<path d="M69.1899 44.9727H65.7305V48.4321H69.1899V44.9727Z" fill="black"/>
<path d="M72.647 44.9727H69.1875V48.4321H72.647V44.9727Z" fill="black"/>
<path d="M86.4868 44.9727H83.0273V48.4321H86.4868V44.9727Z" fill="black"/>
<path d="M89.9477 44.9727H86.4883V48.4321H89.9477V44.9727Z" fill="black"/>
<path d="M96.8657 44.9727H93.4062V48.4321H96.8657V44.9727Z" fill="black"/>
<path d="M107.245 44.9727H103.785V48.4321H107.245V44.9727Z" fill="black"/>
<path d="M10.3774 48.4326H6.91797V51.8921H10.3774V48.4326Z" fill="black"/>
<path d="M17.2954 48.4326H13.8359V51.8921H17.2954V48.4326Z" fill="black"/>
<path d="M20.7563 48.4326H17.2969V51.8921H20.7563V48.4326Z" fill="black"/>
<path d="M24.2173 48.4326H20.7578V51.8921H24.2173V48.4326Z" fill="black"/>
<path d="M38.0531 48.4326H34.5938V51.8921H38.0531V48.4326Z" fill="black"/>
<path d="M41.5141 48.4326H38.0547V51.8921H41.5141V48.4326Z" fill="black"/>
<path d="M44.9712 48.4326H41.5117V51.8921H44.9712V48.4326Z" fill="black"/>
<path d="M51.8931 48.4326H48.4336V51.8921H51.8931V48.4326Z" fill="black"/>
<path d="M55.3501 48.4326H51.8906V51.8921H55.3501V48.4326Z" fill="black"/>
<path d="M62.272 48.4326H58.8125V51.8921H62.272V48.4326Z" fill="black"/>
<path d="M65.729 48.4326H62.2695V51.8921H65.729V48.4326Z" fill="black"/>
<path d="M72.647 48.4326H69.1875V51.8921H72.647V48.4326Z" fill="black"/>
<path d="M76.108 48.4326H72.6484V51.8921H76.108V48.4326Z" fill="black"/>
<path d="M83.0259 48.4326H79.5664V51.8921H83.0259V48.4326Z" fill="black"/>
<path d="M86.4868 48.4326H83.0273V51.8921H86.4868V48.4326Z" fill="black"/>
<path d="M89.9477 48.4326H86.4883V51.8921H89.9477V48.4326Z" fill="black"/>
<path d="M93.4048 48.4326H89.9453V51.8921H93.4048V48.4326Z" fill="black"/>
<path d="M100.323 48.4326H96.8633V51.8921H100.323V48.4326Z" fill="black"/>
<path d="M110.702 48.4326H107.242V51.8921H110.702V48.4326Z" fill="black"/>
<path d="M3.45948 51.8926H0V55.352H3.45948V51.8926Z" fill="black"/>
<path d="M6.92038 51.8926H3.46094V55.352H6.92038V51.8926Z" fill="black"/>
<path d="M10.3774 51.8926H6.91797V55.352H10.3774V51.8926Z" fill="black"/>
<path d="M13.8384 51.8926H10.3789V55.352H13.8384V51.8926Z" fill="black"/>
<path d="M17.2954 51.8926H13.8359V55.352H17.2954V51.8926Z" fill="black"/>
<path d="M27.6743 51.8926H24.2148V55.352H27.6743V51.8926Z" fill="black"/>
<path d="M38.0531 51.8926H34.5938V55.352H38.0531V51.8926Z" fill="black"/>
<path d="M41.5141 51.8926H38.0547V55.352H41.5141V51.8926Z" fill="black"/>
<path d="M48.4321 51.8926H44.9727V55.352H48.4321V51.8926Z" fill="black"/>
<path d="M51.8931 51.8926H48.4336V55.352H51.8931V51.8926Z" fill="black"/>
<path d="M55.3501 51.8926H51.8906V55.352H55.3501V51.8926Z" fill="black"/>
<path d="M58.811 51.8926H55.3516V55.352H58.811V51.8926Z" fill="black"/>
<path d="M62.272 51.8926H58.8125V55.352H62.272V51.8926Z" fill="black"/>
<path d="M65.729 51.8926H62.2695V55.352H65.729V51.8926Z" fill="black"/>
<path d="M76.108 51.8926H72.6484V55.352H76.108V51.8926Z" fill="black"/>
<path d="M83.0259 51.8926H79.5664V55.352H83.0259V51.8926Z" fill="black"/>
<path d="M89.9477 51.8926H86.4883V55.352H89.9477V51.8926Z" fill="black"/>
<path d="M93.4048 51.8926H89.9453V55.352H93.4048V51.8926Z" fill="black"/>
<path d="M96.8657 51.8926H93.4062V55.352H96.8657V51.8926Z" fill="black"/>
<path d="M3.45948 55.3506H0V58.81H3.45948V55.3506Z" fill="black"/>
<path d="M6.92038 55.3506H3.46094V58.81H6.92038V55.3506Z" fill="black"/>
<path d="M13.8384 55.3506H10.3789V58.81H13.8384V55.3506Z" fill="black"/>
<path d="M17.2954 55.3506H13.8359V58.81H17.2954V55.3506Z" fill="black"/>
<path d="M20.7563 55.3506H17.2969V58.81H20.7563V55.3506Z" fill="black"/>
<path d="M24.2173 55.3506H20.7578V58.81H24.2173V55.3506Z" fill="black"/>
<path d="M31.1352 55.3506H27.6758V58.81H31.1352V55.3506Z" fill="black"/>
<path d="M34.5962 55.3506H31.1367V58.81H34.5962V55.3506Z" fill="black"/>
<path d="M44.9712 55.3506H41.5117V58.81H44.9712V55.3506Z" fill="black"/>
<path d="M62.272 55.3506H58.8125V58.81H62.272V55.3506Z" fill="black"/>
<path d="M65.729 55.3506H62.2695V58.81H65.729V55.3506Z" fill="black"/>
<path d="M69.1899 55.3506H65.7305V58.81H69.1899V55.3506Z" fill="black"/>
<path d="M72.647 55.3506H69.1875V58.81H72.647V55.3506Z" fill="black"/>
<path d="M76.108 55.3506H72.6484V58.81H76.108V55.3506Z" fill="black"/>
<path d="M79.5687 55.3506H76.1094V58.81H79.5687V55.3506Z" fill="black"/>
<path d="M86.4868 55.3506H83.0273V58.81H86.4868V55.3506Z" fill="black"/>
<path d="M93.4048 55.3506H89.9453V58.81H93.4048V55.3506Z" fill="black"/>
<path d="M100.323 55.3506H96.8633V58.81H100.323V55.3506Z" fill="black"/>
<path d="M103.784 55.3506H100.324V58.81H103.784V55.3506Z" fill="black"/>
<path d="M110.702 55.3506H107.242V58.81H110.702V55.3506Z" fill="black"/>
<path d="M3.45948 58.8105H0V62.27H3.45948V58.8105Z" fill="black"/>
<path d="M6.92038 58.8105H3.46094V62.27H6.92038V58.8105Z" fill="black"/>
<path d="M17.2954 58.8105H13.8359V62.27H17.2954V58.8105Z" fill="black"/>
<path d="M20.7563 58.8105H17.2969V62.27H20.7563V58.8105Z" fill="black"/>
<path d="M27.6743 58.8105H24.2148V62.27H27.6743V58.8105Z" fill="black"/>
<path d="M31.1352 58.8105H27.6758V62.27H31.1352V58.8105Z" fill="black"/>
<path d="M34.5962 58.8105H31.1367V62.27H34.5962V58.8105Z" fill="black"/>
<path d="M38.0531 58.8105H34.5938V62.27H38.0531V58.8105Z" fill="black"/>
<path d="M55.3501 58.8105H51.8906V62.27H55.3501V58.8105Z" fill="black"/>
<path d="M58.811 58.8105H55.3516V62.27H58.811V58.8105Z" fill="black"/>
<path d="M65.729 58.8105H62.2695V62.27H65.729V58.8105Z" fill="black"/>
<path d="M72.647 58.8105H69.1875V62.27H72.647V58.8105Z" fill="black"/>
<path d="M79.5687 58.8105H76.1094V62.27H79.5687V58.8105Z" fill="black"/>
<path d="M83.0259 58.8105H79.5664V62.27H83.0259V58.8105Z" fill="black"/>
<path d="M86.4868 58.8105H83.0273V62.27H86.4868V58.8105Z" fill="black"/>
<path d="M103.784 58.8105H100.324V62.27H103.784V58.8105Z" fill="black"/>
<path d="M107.245 58.8105H103.785V62.27H107.245V58.8105Z" fill="black"/>
<path d="M110.702 58.8105H107.242V62.27H110.702V58.8105Z" fill="black"/>
<path d="M3.45948 62.2705H0V65.73H3.45948V62.2705Z" fill="black"/>
<path d="M10.3774 62.2705H6.91797V65.73H10.3774V62.2705Z" fill="black"/>
<path d="M13.8384 62.2705H10.3789V65.73H13.8384V62.2705Z" fill="black"/>
<path d="M17.2954 62.2705H13.8359V65.73H17.2954V62.2705Z" fill="black"/>
<path d="M24.2173 62.2705H20.7578V65.73H24.2173V62.2705Z" fill="black"/>
<path d="M27.6743 62.2705H24.2148V65.73H27.6743V62.2705Z" fill="black"/>
<path d="M38.0531 62.2705H34.5938V65.73H38.0531V62.2705Z" fill="black"/>
<path d="M44.9712 62.2705H41.5117V65.73H44.9712V62.2705Z" fill="black"/>
<path d="M48.4321 62.2705H44.9727V65.73H48.4321V62.2705Z" fill="black"/>
<path d="M55.3501 62.2705H51.8906V65.73H55.3501V62.2705Z" fill="black"/>
<path d="M58.811 62.2705H55.3516V65.73H58.811V62.2705Z" fill="black"/>
<path d="M62.272 62.2705H58.8125V65.73H62.272V62.2705Z" fill="black"/>
<path d="M72.647 62.2705H69.1875V65.73H72.647V62.2705Z" fill="black"/>
<path d="M76.108 62.2705H72.6484V65.73H76.108V62.2705Z" fill="black"/>
<path d="M79.5687 62.2705H76.1094V65.73H79.5687V62.2705Z" fill="black"/>
<path d="M83.0259 62.2705H79.5664V65.73H83.0259V62.2705Z" fill="black"/>
<path d="M86.4868 62.2705H83.0273V65.73H86.4868V62.2705Z" fill="black"/>
<path d="M89.9477 62.2705H86.4883V65.73H89.9477V62.2705Z" fill="black"/>
<path d="M96.8657 62.2705H93.4062V65.73H96.8657V62.2705Z" fill="black"/>
<path d="M103.784 62.2705H100.324V65.73H103.784V62.2705Z" fill="black"/>
<path d="M110.702 62.2705H107.242V65.73H110.702V62.2705Z" fill="black"/>
<path d="M6.92038 65.7295H3.46094V69.189H6.92038V65.7295Z" fill="black"/>
<path d="M10.3774 65.7295H6.91797V69.189H10.3774V65.7295Z" fill="black"/>
<path d="M17.2954 65.7295H13.8359V69.189H17.2954V65.7295Z" fill="black"/>
<path d="M27.6743 65.7295H24.2148V69.189H27.6743V65.7295Z" fill="black"/>
<path d="M38.0531 65.7295H34.5938V69.189H38.0531V65.7295Z" fill="black"/>
<path d="M44.9712 65.7295H41.5117V69.189H44.9712V65.7295Z" fill="black"/>
<path d="M48.4321 65.7295H44.9727V69.189H48.4321V65.7295Z" fill="black"/>
<path d="M55.3501 65.7295H51.8906V69.189H55.3501V65.7295Z" fill="black"/>
<path d="M62.272 65.7295H58.8125V69.189H62.272V65.7295Z" fill="black"/>
<path d="M65.729 65.7295H62.2695V69.189H65.729V65.7295Z" fill="black"/>
<path d="M72.647 65.7295H69.1875V69.189H72.647V65.7295Z" fill="black"/>
<path d="M76.108 65.7295H72.6484V69.189H76.108V65.7295Z" fill="black"/>
<path d="M86.4868 65.7295H83.0273V69.189H86.4868V65.7295Z" fill="black"/>
<path d="M89.9477 65.7295H86.4883V69.189H89.9477V65.7295Z" fill="black"/>
<path d="M93.4048 65.7295H89.9453V69.189H93.4048V65.7295Z" fill="black"/>
<path d="M96.8657 65.7295H93.4062V69.189H96.8657V65.7295Z" fill="black"/>
<path d="M110.702 65.7295H107.242V69.189H110.702V65.7295Z" fill="black"/>
<path d="M3.45948 69.1895H0V72.6489H3.45948V69.1895Z" fill="black"/>
<path d="M10.3774 69.1895H6.91797V72.6489H10.3774V69.1895Z" fill="black"/>
<path d="M20.7563 69.1895H17.2969V72.6489H20.7563V69.1895Z" fill="black"/>
<path d="M24.2173 69.1895H20.7578V72.6489H24.2173V69.1895Z" fill="black"/>
<path d="M27.6743 69.1895H24.2148V72.6489H27.6743V69.1895Z" fill="black"/>
<path d="M34.5962 69.1895H31.1367V72.6489H34.5962V69.1895Z" fill="black"/>
<path d="M41.5141 69.1895H38.0547V72.6489H41.5141V69.1895Z" fill="black"/>
<path d="M48.4321 69.1895H44.9727V72.6489H48.4321V69.1895Z" fill="black"/>
<path d="M51.8931 69.1895H48.4336V72.6489H51.8931V69.1895Z" fill="black"/>
<path d="M65.729 69.1895H62.2695V72.6489H65.729V69.1895Z" fill="black"/>
<path d="M69.1899 69.1895H65.7305V72.6489H69.1899V69.1895Z" fill="black"/>
<path d="M72.647 69.1895H69.1875V72.6489H72.647V69.1895Z" fill="black"/>
<path d="M93.4048 69.1895H89.9453V72.6489H93.4048V69.1895Z" fill="black"/>
<path d="M96.8657 69.1895H93.4062V72.6489H96.8657V69.1895Z" fill="black"/>
<path d="M100.323 69.1895H96.8633V72.6489H100.323V69.1895Z" fill="black"/>
<path d="M103.784 69.1895H100.324V72.6489H103.784V69.1895Z" fill="black"/>
<path d="M3.45948 72.6494H0V76.109H3.45948V72.6494Z" fill="black"/>
<path d="M13.8384 72.6494H10.3789V76.109H13.8384V72.6494Z" fill="black"/>
<path d="M20.7563 72.6494H17.2969V76.109H20.7563V72.6494Z" fill="black"/>
<path d="M44.9712 72.6494H41.5117V76.109H44.9712V72.6494Z" fill="black"/>
<path d="M58.811 72.6494H55.3516V76.109H58.811V72.6494Z" fill="black"/>
<path d="M62.272 72.6494H58.8125V76.109H62.272V72.6494Z" fill="black"/>
<path d="M69.1899 72.6494H65.7305V76.109H69.1899V72.6494Z" fill="black"/>
<path d="M79.5687 72.6494H76.1094V76.109H79.5687V72.6494Z" fill="black"/>
<path d="M93.4048 72.6494H89.9453V76.109H93.4048V72.6494Z" fill="black"/>
<path d="M103.784 72.6494H100.324V76.109H103.784V72.6494Z" fill="black"/>
<path d="M107.245 72.6494H103.785V76.109H107.245V72.6494Z" fill="black"/>
<path d="M110.702 72.6494H107.242V76.109H110.702V72.6494Z" fill="black"/>
<path d="M17.2954 76.1074H13.8359V79.5667H17.2954V76.1074Z" fill="black"/>
<path d="M20.7563 76.1074H17.2969V79.5667H20.7563V76.1074Z" fill="black"/>
<path d="M24.2173 76.1074H20.7578V79.5667H24.2173V76.1074Z" fill="black"/>
<path d="M27.6743 76.1074H24.2148V79.5667H27.6743V76.1074Z" fill="black"/>
<path d="M41.5141 76.1074H38.0547V79.5667H41.5141V76.1074Z" fill="black"/>
<path d="M44.9712 76.1074H41.5117V79.5667H44.9712V76.1074Z" fill="black"/>
<path d="M51.8931 76.1074H48.4336V79.5667H51.8931V76.1074Z" fill="black"/>
<path d="M58.811 76.1074H55.3516V79.5667H58.811V76.1074Z" fill="black"/>
<path d="M65.729 76.1074H62.2695V79.5667H65.729V76.1074Z" fill="black"/>
<path d="M69.1899 76.1074H65.7305V79.5667H69.1899V76.1074Z" fill="black"/>
<path d="M76.108 76.1074H72.6484V79.5667H76.108V76.1074Z" fill="black"/>
<path d="M83.0259 76.1074H79.5664V79.5667H83.0259V76.1074Z" fill="black"/>
<path d="M86.4868 76.1074H83.0273V79.5667H86.4868V76.1074Z" fill="black"/>
<path d="M89.9477 76.1074H86.4883V79.5667H89.9477V76.1074Z" fill="black"/>
<path d="M107.245 76.1074H103.785V79.5667H107.245V76.1074Z" fill="black"/>
<path d="M110.702 76.1074H107.242V79.5667H110.702V76.1074Z" fill="black"/>
<path d="M13.8384 79.5674H10.3789V83.0268H13.8384V79.5674Z" fill="black"/>
<path d="M17.2954 79.5674H13.8359V83.0268H17.2954V79.5674Z" fill="black"/>
<path d="M20.7563 79.5674H17.2969V83.0268H20.7563V79.5674Z" fill="black"/>
<path d="M27.6743 79.5674H24.2148V83.0268H27.6743V79.5674Z" fill="black"/>
<path d="M31.1352 79.5674H27.6758V83.0268H31.1352V79.5674Z" fill="black"/>
<path d="M38.0531 79.5674H34.5938V83.0268H38.0531V79.5674Z" fill="black"/>
<path d="M48.4321 79.5674H44.9727V83.0268H48.4321V79.5674Z" fill="black"/>
<path d="M62.272 79.5674H58.8125V83.0268H62.272V79.5674Z" fill="black"/>
<path d="M65.729 79.5674H62.2695V83.0268H65.729V79.5674Z" fill="black"/>
<path d="M69.1899 79.5674H65.7305V83.0268H69.1899V79.5674Z" fill="black"/>
<path d="M72.647 79.5674H69.1875V83.0268H72.647V79.5674Z" fill="black"/>
<path d="M76.108 79.5674H72.6484V83.0268H76.108V79.5674Z" fill="black"/>
<path d="M79.5687 79.5674H76.1094V83.0268H79.5687V79.5674Z" fill="black"/>
<path d="M89.9477 79.5674H86.4883V83.0268H89.9477V79.5674Z" fill="black"/>
<path d="M93.4048 79.5674H89.9453V83.0268H93.4048V79.5674Z" fill="black"/>
<path d="M100.323 79.5674H96.8633V83.0268H100.323V79.5674Z" fill="black"/>
<path d="M103.784 79.5674H100.324V83.0268H103.784V79.5674Z" fill="black"/>
<path d="M110.702 79.5674H107.242V83.0268H110.702V79.5674Z" fill="black"/>
<path d="M114.163 79.5674H110.703V83.0268H114.163V79.5674Z" fill="black"/>
<path d="M3.45948 83.0273H0V86.4868H3.45948V83.0273Z" fill="black"/>
<path d="M6.92038 83.0273H3.46094V86.4868H6.92038V83.0273Z" fill="black"/>
<path d="M10.3774 83.0273H6.91797V86.4868H10.3774V83.0273Z" fill="black"/>
<path d="M17.2954 83.0273H13.8359V86.4868H17.2954V83.0273Z" fill="black"/>
<path d="M24.2173 83.0273H20.7578V86.4868H24.2173V83.0273Z" fill="black"/>
<path d="M27.6743 83.0273H24.2148V86.4868H27.6743V83.0273Z" fill="black"/>
<path d="M38.0531 83.0273H34.5938V86.4868H38.0531V83.0273Z" fill="black"/>
<path d="M41.5141 83.0273H38.0547V86.4868H41.5141V83.0273Z" fill="black"/>
<path d="M48.4321 83.0273H44.9727V86.4868H48.4321V83.0273Z" fill="black"/>
<path d="M51.8931 83.0273H48.4336V86.4868H51.8931V83.0273Z" fill="black"/>
<path d="M55.3501 83.0273H51.8906V86.4868H55.3501V83.0273Z" fill="black"/>
<path d="M58.811 83.0273H55.3516V86.4868H58.811V83.0273Z" fill="black"/>
<path d="M62.272 83.0273H58.8125V86.4868H62.272V83.0273Z" fill="black"/>
<path d="M72.647 83.0273H69.1875V86.4868H72.647V83.0273Z" fill="black"/>
<path d="M76.108 83.0273H72.6484V86.4868H76.108V83.0273Z" fill="black"/>
<path d="M79.5687 83.0273H76.1094V86.4868H79.5687V83.0273Z" fill="black"/>
<path d="M86.4868 83.0273H83.0273V86.4868H86.4868V83.0273Z" fill="black"/>
<path d="M89.9477 83.0273H86.4883V86.4868H89.9477V83.0273Z" fill="black"/>
<path d="M93.4048 83.0273H89.9453V86.4868H93.4048V83.0273Z" fill="black"/>
<path d="M96.8657 83.0273H93.4062V86.4868H96.8657V83.0273Z" fill="black"/>
<path d="M100.323 83.0273H96.8633V86.4868H100.323V83.0273Z" fill="black"/>
<path d="M103.784 83.0273H100.324V86.4868H103.784V83.0273Z" fill="black"/>
<path d="M110.702 83.0273H107.242V86.4868H110.702V83.0273Z" fill="black"/>
<path d="M31.1352 86.4863H27.6758V89.9458H31.1352V86.4863Z" fill="black"/>
<path d="M38.0531 86.4863H34.5938V89.9458H38.0531V86.4863Z" fill="black"/>
<path d="M41.5141 86.4863H38.0547V89.9458H41.5141V86.4863Z" fill="black"/>
<path d="M48.4321 86.4863H44.9727V89.9458H48.4321V86.4863Z" fill="black"/>
<path d="M51.8931 86.4863H48.4336V89.9458H51.8931V86.4863Z" fill="black"/>
<path d="M55.3501 86.4863H51.8906V89.9458H55.3501V86.4863Z" fill="black"/>
<path d="M58.811 86.4863H55.3516V89.9458H58.811V86.4863Z" fill="black"/>
<path d="M62.272 86.4863H58.8125V89.9458H62.272V86.4863Z" fill="black"/>
<path d="M76.108 86.4863H72.6484V89.9458H76.108V86.4863Z" fill="black"/>
<path d="M79.5687 86.4863H76.1094V89.9458H79.5687V86.4863Z" fill="black"/>
<path d="M83.0259 86.4863H79.5664V89.9458H83.0259V86.4863Z" fill="black"/>
<path d="M86.4868 86.4863H83.0273V89.9458H86.4868V86.4863Z" fill="black"/>
<path d="M100.323 86.4863H96.8633V89.9458H100.323V86.4863Z" fill="black"/>
<path d="M107.245 86.4863H103.785V89.9458H107.245V86.4863Z" fill="black"/>
<path d="M31.1352 89.9463H27.6758V93.4057H31.1352V89.9463Z" fill="black"/>
<path d="M34.5962 89.9463H31.1367V93.4057H34.5962V89.9463Z" fill="black"/>
<path d="M38.0531 89.9463H34.5938V93.4057H38.0531V89.9463Z" fill="black"/>
<path d="M51.8931 89.9463H48.4336V93.4057H51.8931V89.9463Z" fill="black"/>
<path d="M55.3501 89.9463H51.8906V93.4057H55.3501V89.9463Z" fill="black"/>
<path d="M65.729 89.9463H62.2695V93.4057H65.729V89.9463Z" fill="black"/>
<path d="M86.4868 89.9463H83.0273V93.4057H86.4868V89.9463Z" fill="black"/>
<path d="M93.4048 89.9463H89.9453V93.4057H93.4048V89.9463Z" fill="black"/>
<path d="M100.323 89.9463H96.8633V93.4057H100.323V89.9463Z" fill="black"/>
<path d="M103.784 89.9463H100.324V93.4057H103.784V89.9463Z" fill="black"/>
<path d="M41.5141 93.4062H38.0547V96.8657H41.5141V93.4062Z" fill="black"/>
<path d="M51.8931 93.4062H48.4336V96.8657H51.8931V93.4062Z" fill="black"/>
<path d="M55.3501 93.4062H51.8906V96.8657H55.3501V93.4062Z" fill="black"/>
<path d="M58.811 93.4062H55.3516V96.8657H58.811V93.4062Z" fill="black"/>
<path d="M69.1899 93.4062H65.7305V96.8657H69.1899V93.4062Z" fill="black"/>
<path d="M79.5687 93.4062H76.1094V96.8657H79.5687V93.4062Z" fill="black"/>
<path d="M86.4868 93.4062H83.0273V96.8657H86.4868V93.4062Z" fill="black"/>
<path d="M100.323 93.4062H96.8633V96.8657H100.323V93.4062Z" fill="black"/>
<path d="M114.163 93.4062H110.703V96.8657H114.163V93.4062Z" fill="black"/>
<path d="M31.1352 96.8643H27.6758V100.324H31.1352V96.8643Z" fill="black"/>
<path d="M41.5141 96.8643H38.0547V100.324H41.5141V96.8643Z" fill="black"/>
<path d="M44.9712 96.8643H41.5117V100.324H44.9712V96.8643Z" fill="black"/>
<path d="M48.4321 96.8643H44.9727V100.324H48.4321V96.8643Z" fill="black"/>
<path d="M51.8931 96.8643H48.4336V100.324H51.8931V96.8643Z" fill="black"/>
<path d="M58.811 96.8643H55.3516V100.324H58.811V96.8643Z" fill="black"/>
<path d="M69.1899 96.8643H65.7305V100.324H69.1899V96.8643Z" fill="black"/>
<path d="M79.5687 96.8643H76.1094V100.324H79.5687V96.8643Z" fill="black"/>
<path d="M86.4868 96.8643H83.0273V100.324H86.4868V96.8643Z" fill="black"/>
<path d="M89.9477 96.8643H86.4883V100.324H89.9477V96.8643Z" fill="black"/>
<path d="M93.4048 96.8643H89.9453V100.324H93.4048V96.8643Z" fill="black"/>
<path d="M96.8657 96.8643H93.4062V100.324H96.8657V96.8643Z" fill="black"/>
<path d="M100.323 96.8643H96.8633V100.324H100.323V96.8643Z" fill="black"/>
<path d="M103.784 96.8643H100.324V100.324H103.784V96.8643Z" fill="black"/>
<path d="M114.163 96.8643H110.703V100.324H114.163V96.8643Z" fill="black"/>
<path d="M34.5962 100.324H31.1367V103.784H34.5962V100.324Z" fill="black"/>
<path d="M38.0531 100.324H34.5938V103.784H38.0531V100.324Z" fill="black"/>
<path d="M44.9712 100.324H41.5117V103.784H44.9712V100.324Z" fill="black"/>
<path d="M48.4321 100.324H44.9727V103.784H48.4321V100.324Z" fill="black"/>
<path d="M65.729 100.324H62.2695V103.784H65.729V100.324Z" fill="black"/>
<path d="M69.1899 100.324H65.7305V103.784H69.1899V100.324Z" fill="black"/>
<path d="M72.647 100.324H69.1875V103.784H72.647V100.324Z" fill="black"/>
<path d="M83.0259 100.324H79.5664V103.784H83.0259V100.324Z" fill="black"/>
<path d="M93.4048 100.324H89.9453V103.784H93.4048V100.324Z" fill="black"/>
<path d="M96.8657 100.324H93.4062V103.784H96.8657V100.324Z" fill="black"/>
<path d="M100.323 100.324H96.8633V103.784H100.323V100.324Z" fill="black"/>
<path d="M103.784 100.324H100.324V103.784H103.784V100.324Z" fill="black"/>
<path d="M107.245 100.324H103.785V103.784H107.245V100.324Z" fill="black"/>
<path d="M110.702 100.324H107.242V103.784H110.702V100.324Z" fill="black"/>
<path d="M34.5962 103.783H31.1367V107.243H34.5962V103.783Z" fill="black"/>
<path d="M44.9712 103.783H41.5117V107.243H44.9712V103.783Z" fill="black"/>
<path d="M51.8931 103.783H48.4336V107.243H51.8931V103.783Z" fill="black"/>
<path d="M55.3501 103.783H51.8906V107.243H55.3501V103.783Z" fill="black"/>
<path d="M65.729 103.783H62.2695V107.243H65.729V103.783Z" fill="black"/>
<path d="M72.647 103.783H69.1875V107.243H72.647V103.783Z" fill="black"/>
<path d="M76.108 103.783H72.6484V107.243H76.108V103.783Z" fill="black"/>
<path d="M89.9477 103.783H86.4883V107.243H89.9477V103.783Z" fill="black"/>
<path d="M93.4048 103.783H89.9453V107.243H93.4048V103.783Z" fill="black"/>
<path d="M96.8657 103.783H93.4062V107.243H96.8657V103.783Z" fill="black"/>
<path d="M100.323 103.783H96.8633V107.243H100.323V103.783Z" fill="black"/>
<path d="M103.784 103.783H100.324V107.243H103.784V103.783Z" fill="black"/>
<path d="M41.5141 107.243H38.0547V110.703H41.5141V107.243Z" fill="black"/>
<path d="M44.9712 107.243H41.5117V110.703H44.9712V107.243Z" fill="black"/>
<path d="M48.4321 107.243H44.9727V110.703H48.4321V107.243Z" fill="black"/>
<path d="M55.3501 107.243H51.8906V110.703H55.3501V107.243Z" fill="black"/>
<path d="M58.811 107.243H55.3516V110.703H58.811V107.243Z" fill="black"/>
<path d="M62.272 107.243H58.8125V110.703H62.272V107.243Z" fill="black"/>
<path d="M65.729 107.243H62.2695V110.703H65.729V107.243Z" fill="black"/>
<path d="M76.108 107.243H72.6484V110.703H76.108V107.243Z" fill="black"/>
<path d="M83.0259 107.243H79.5664V110.703H83.0259V107.243Z" fill="black"/>
<path d="M86.4868 107.243H83.0273V110.703H86.4868V107.243Z" fill="black"/>
<path d="M93.4048 107.243H89.9453V110.703H93.4048V107.243Z" fill="black"/>
<path d="M31.1352 110.703H27.6758V114.163H31.1352V110.703Z" fill="black"/>
<path d="M38.0531 110.703H34.5938V114.163H38.0531V110.703Z" fill="black"/>
<path d="M62.272 110.703H58.8125V114.163H62.272V110.703Z" fill="black"/>
<path d="M69.1899 110.703H65.7305V114.163H69.1899V110.703Z" fill="black"/>
<path d="M72.647 110.703H69.1875V114.163H72.647V110.703Z" fill="black"/>
<path d="M76.108 110.703H72.6484V114.163H76.108V110.703Z" fill="black"/>
<path d="M79.5687 110.703H76.1094V114.163H79.5687V110.703Z" fill="black"/>
<path d="M83.0259 110.703H79.5664V114.163H83.0259V110.703Z" fill="black"/>
<path d="M86.4868 110.703H83.0273V114.163H86.4868V110.703Z" fill="black"/>
<path d="M89.9477 110.703H86.4883V114.163H89.9477V110.703Z" fill="black"/>
<path d="M93.4048 110.703H89.9453V114.163H93.4048V110.703Z" fill="black"/>
<path d="M103.784 110.703H100.324V114.163H103.784V110.703Z" fill="black"/>
<path d="M114.163 110.703H110.703V114.163H114.163V110.703Z" fill="black"/>
<path d="M20.5838 0H3.63243H0V3.63243V20.5838V24.2162H3.63243H20.5838H24.2162V20.5838V3.63243V0H20.5838ZM20.5838 20.5838H3.63243V3.63243H20.5838V20.5838Z" fill="black"/>
<path d="M110.529 0H93.5777H89.9453V3.63243V20.5838V24.2162H93.5777H110.529H114.162V20.5838V3.63243V0H110.529ZM110.529 20.5838H93.5777V3.63243H110.529V20.5838Z" fill="black"/>
<path d="M20.5838 89.9463H3.63243H0V93.5787V110.53V114.162H3.63243H20.5838H24.2162V110.53V93.5787V89.9463H20.5838ZM20.5838 110.53H3.63243V93.5787H20.5838V110.53Z" fill="black"/>
<path d="M17.2963 6.91895H6.91797V17.2973H17.2963V6.91895Z" fill="black"/>
<path d="M107.242 6.91895H96.8633V17.2973H107.242V6.91895Z" fill="black"/>
<path d="M17.2963 96.8643H6.91797V107.243H17.2963V96.8643Z" fill="black"/>
</svg>
