<svg width="20" height="17" viewBox="0 0 20 17" fill="none" xmlns="http://www.w3.org/2000/svg">
<path d="M13.3326 11.6643L9.99923 8.33096M9.99923 8.33096L6.6659 11.6643M9.99923 8.33096V15.831M16.9909 13.656C17.8037 13.2129 18.4458 12.5117 18.8158 11.6631C19.1858 10.8146 19.2627 9.86699 19.0344 8.96987C18.8061 8.07275 18.2855 7.27722 17.5548 6.70883C16.8241 6.14044 15.925 5.83157 14.9992 5.83096H13.9492C13.697 4.85533 13.2269 3.94957 12.5742 3.18179C11.9215 2.414 11.1033 1.80417 10.181 1.39813C9.2587 0.992097 8.25636 0.800426 7.24933 0.837529C6.2423 0.874632 5.25679 1.13954 4.36688 1.61235C3.47697 2.08515 2.70583 2.75355 2.11142 3.56728C1.51701 4.38101 1.11481 5.31891 0.935051 6.31046C0.755293 7.302 0.802655 8.3214 1.07358 9.29201C1.3445 10.2626 1.83194 11.1592 2.49923 11.9143" stroke="#535862" stroke-width="1.66667" stroke-linecap="round" stroke-linejoin="round"/>
</svg>
